<?xml version="1.0" standalone="no"?>
<!DOCTYPE svg PUBLIC "-//W3C//DTD SVG 20010904//EN"
 "http://www.w3.org/TR/2001/REC-SVG-20010904/DTD/svg10.dtd">
<svg version="1.0" xmlns="http://www.w3.org/2000/svg"
 width="32.000000pt" height="32.000000pt" viewBox="0 0 32.000000 32.000000"
 preserveAspectRatio="xMidYMid meet">
<metadata>
Created by potrace 1.16, written by Peter Selinger 2001-2019
</metadata>
<g transform="translate(0.000000,32.000000) scale(0.100000,-0.100000)"
fill="#000000" stroke="none">
<path d="M72 300 c-18 -11 -41 -34 -52 -52 -27 -45 -27 -131 0 -176 30 -48 75
-72 140 -72 100 0 160 60 160 160 0 65 -24 110 -72 140 -45 27 -131 27 -176 0z
m44 -90 c12 0 13 -4 3 -21 -9 -18 -13 -19 -20 -8 -8 11 -12 10 -24 -5 -17 -23
-18 -26 -6 -44 7 -12 12 -12 30 -1 11 8 21 21 21 31 0 16 44 58 61 58 4 0 14
-7 23 -15 8 -8 19 -15 25 -15 6 0 11 -8 11 -17 1 -17 1 -17 14 0 24 32 35 19
19 -23 -19 -47 -38 -52 -46 -10 -5 22 -12 30 -28 30 -15 0 -19 4 -15 16 4 10
1 14 -6 12 -7 -3 -14 -22 -16 -42 -2 -24 0 -36 7 -32 6 4 8 13 4 21 -3 10 2
15 16 15 17 0 21 -6 21 -30 0 -28 -2 -29 -37 -24 -21 2 -39 9 -41 13 -2 5 -16
2 -32 -7 -27 -16 -30 -15 -49 2 -12 11 -21 30 -21 43 0 29 36 67 57 59 8 -3
21 -6 29 -6z"/>
</g>
</svg>
